<mxfile host="app.diagrams.net" modified="2024-07-25T08:54:49.331Z" agent="Mozilla/5.0 (Macintosh; Intel Mac OS X 10_15_7) AppleWebKit/537.36 (KHTML, like Gecko) Chrome/126.0.0.0 Safari/537.36 Edg/126.0.0.0" etag="OELPJbcLy4kSAV5qeJiu" version="24.4.13" type="github">
  <diagram id="R2lEEEUBdFMjLlhIrx00" name="Page-1">
    <mxGraphModel dx="2598" dy="806" grid="1" gridSize="10" guides="1" tooltips="1" connect="1" arrows="1" fold="1" page="1" pageScale="1" pageWidth="850" pageHeight="1400" math="0" shadow="0" extFonts="Permanent Marker^https://fonts.googleapis.com/css?family=Permanent+Marker">
      <root>
        <mxCell id="0" />
        <mxCell id="1" parent="0" />
        <mxCell id="hcqZwNflrP7TavyykuLO-100" value="Assets" style="childLayout=tableLayout;recursiveResize=0;strokeColor=#98bf21;fillColor=#A7C942;shadow=1;" vertex="1" parent="1">
          <mxGeometry x="-450" y="530" width="700" height="224" as="geometry" />
        </mxCell>
        <mxCell id="hcqZwNflrP7TavyykuLO-101" style="shape=tableRow;horizontal=0;startSize=0;swimlaneHead=0;swimlaneBody=0;top=0;left=0;bottom=0;right=0;dropTarget=0;collapsible=0;recursiveResize=0;expand=0;fontStyle=0;strokeColor=inherit;fillColor=#ffffff;" vertex="1" parent="hcqZwNflrP7TavyykuLO-100">
          <mxGeometry width="700" height="33" as="geometry" />
        </mxCell>
        <mxCell id="hcqZwNflrP7TavyykuLO-102" value="id" style="connectable=0;recursiveResize=0;strokeColor=inherit;fillColor=#A7C942;align=center;fontStyle=1;fontColor=#FFFFFF;html=1;" vertex="1" parent="hcqZwNflrP7TavyykuLO-101">
          <mxGeometry width="99" height="33" as="geometry">
            <mxRectangle width="99" height="33" as="alternateBounds" />
          </mxGeometry>
        </mxCell>
        <mxCell id="hcqZwNflrP7TavyykuLO-103" value="component" style="connectable=0;recursiveResize=0;strokeColor=inherit;fillColor=#A7C942;align=center;fontStyle=1;fontColor=#FFFFFF;html=1;" vertex="1" parent="hcqZwNflrP7TavyykuLO-101">
          <mxGeometry x="99" width="101" height="33" as="geometry">
            <mxRectangle width="101" height="33" as="alternateBounds" />
          </mxGeometry>
        </mxCell>
        <mxCell id="hcqZwNflrP7TavyykuLO-104" value="codegenType" style="connectable=0;recursiveResize=0;strokeColor=inherit;fillColor=#A7C942;align=center;fontStyle=1;fontColor=#FFFFFF;html=1;" vertex="1" parent="hcqZwNflrP7TavyykuLO-101">
          <mxGeometry x="200" width="100" height="33" as="geometry">
            <mxRectangle width="100" height="33" as="alternateBounds" />
          </mxGeometry>
        </mxCell>
        <mxCell id="hcqZwNflrP7TavyykuLO-181" value="description" style="connectable=0;recursiveResize=0;strokeColor=inherit;fillColor=#A7C942;align=center;fontStyle=1;fontColor=#FFFFFF;html=1;" vertex="1" parent="hcqZwNflrP7TavyykuLO-101">
          <mxGeometry x="300" width="100" height="33" as="geometry">
            <mxRectangle width="100" height="33" as="alternateBounds" />
          </mxGeometry>
        </mxCell>
        <mxCell id="hcqZwNflrP7TavyykuLO-175" value="api" style="connectable=0;recursiveResize=0;strokeColor=inherit;fillColor=#A7C942;align=center;fontStyle=1;fontColor=#FFFFFF;html=1;" vertex="1" parent="hcqZwNflrP7TavyykuLO-101">
          <mxGeometry x="400" width="100" height="33" as="geometry">
            <mxRectangle width="100" height="33" as="alternateBounds" />
          </mxGeometry>
        </mxCell>
        <mxCell id="hcqZwNflrP7TavyykuLO-169" value="userid" style="connectable=0;recursiveResize=0;strokeColor=inherit;fillColor=#A7C942;align=center;fontStyle=1;fontColor=#FFFFFF;html=1;" vertex="1" parent="hcqZwNflrP7TavyykuLO-101">
          <mxGeometry x="500" width="100" height="33" as="geometry">
            <mxRectangle width="100" height="33" as="alternateBounds" />
          </mxGeometry>
        </mxCell>
        <mxCell id="hcqZwNflrP7TavyykuLO-187" value="version" style="connectable=0;recursiveResize=0;strokeColor=inherit;fillColor=#A7C942;align=center;fontStyle=1;fontColor=#FFFFFF;html=1;" vertex="1" parent="hcqZwNflrP7TavyykuLO-101">
          <mxGeometry x="600" width="100" height="33" as="geometry">
            <mxRectangle width="100" height="33" as="alternateBounds" />
          </mxGeometry>
        </mxCell>
        <mxCell id="hcqZwNflrP7TavyykuLO-105" value="" style="shape=tableRow;horizontal=0;startSize=0;swimlaneHead=0;swimlaneBody=0;top=0;left=0;bottom=0;right=0;dropTarget=0;collapsible=0;recursiveResize=0;expand=0;fontStyle=0;strokeColor=inherit;fillColor=#ffffff;" vertex="1" parent="hcqZwNflrP7TavyykuLO-100">
          <mxGeometry y="33" width="700" height="32" as="geometry" />
        </mxCell>
        <mxCell id="hcqZwNflrP7TavyykuLO-106" value="xxx" style="connectable=0;recursiveResize=0;strokeColor=inherit;fillColor=inherit;align=center;whiteSpace=wrap;html=1;" vertex="1" parent="hcqZwNflrP7TavyykuLO-105">
          <mxGeometry width="99" height="32" as="geometry">
            <mxRectangle width="99" height="32" as="alternateBounds" />
          </mxGeometry>
        </mxCell>
        <mxCell id="hcqZwNflrP7TavyykuLO-107" value="button" style="connectable=0;recursiveResize=0;strokeColor=inherit;fillColor=inherit;align=center;whiteSpace=wrap;html=1;" vertex="1" parent="hcqZwNflrP7TavyykuLO-105">
          <mxGeometry x="99" width="101" height="32" as="geometry">
            <mxRectangle width="101" height="32" as="alternateBounds" />
          </mxGeometry>
        </mxCell>
        <mxCell id="hcqZwNflrP7TavyykuLO-108" value="haven" style="connectable=0;recursiveResize=0;strokeColor=inherit;fillColor=inherit;align=center;whiteSpace=wrap;html=1;" vertex="1" parent="hcqZwNflrP7TavyykuLO-105">
          <mxGeometry x="200" width="100" height="32" as="geometry">
            <mxRectangle width="100" height="32" as="alternateBounds" />
          </mxGeometry>
        </mxCell>
        <mxCell id="hcqZwNflrP7TavyykuLO-182" value="好看的按钮" style="connectable=0;recursiveResize=0;strokeColor=inherit;fillColor=inherit;align=center;whiteSpace=wrap;html=1;" vertex="1" parent="hcqZwNflrP7TavyykuLO-105">
          <mxGeometry x="300" width="100" height="32" as="geometry">
            <mxRectangle width="100" height="32" as="alternateBounds" />
          </mxGeometry>
        </mxCell>
        <mxCell id="hcqZwNflrP7TavyykuLO-176" value="&quot;props xxxx&quot;" style="connectable=0;recursiveResize=0;strokeColor=inherit;fillColor=inherit;align=center;whiteSpace=wrap;html=1;" vertex="1" parent="hcqZwNflrP7TavyykuLO-105">
          <mxGeometry x="400" width="100" height="32" as="geometry">
            <mxRectangle width="100" height="32" as="alternateBounds" />
          </mxGeometry>
        </mxCell>
        <mxCell id="hcqZwNflrP7TavyykuLO-170" value="&lt;font color=&quot;#ff3333&quot;&gt;lv0&lt;/font&gt;" style="connectable=0;recursiveResize=0;strokeColor=inherit;fillColor=inherit;align=center;whiteSpace=wrap;html=1;" vertex="1" parent="hcqZwNflrP7TavyykuLO-105">
          <mxGeometry x="500" width="100" height="32" as="geometry">
            <mxRectangle width="100" height="32" as="alternateBounds" />
          </mxGeometry>
        </mxCell>
        <mxCell id="hcqZwNflrP7TavyykuLO-188" value="v0" style="connectable=0;recursiveResize=0;strokeColor=inherit;fillColor=inherit;align=center;whiteSpace=wrap;html=1;" vertex="1" parent="hcqZwNflrP7TavyykuLO-105">
          <mxGeometry x="600" width="100" height="32" as="geometry">
            <mxRectangle width="100" height="32" as="alternateBounds" />
          </mxGeometry>
        </mxCell>
        <mxCell id="hcqZwNflrP7TavyykuLO-200" value="" style="shape=tableRow;horizontal=0;startSize=0;swimlaneHead=0;swimlaneBody=0;top=0;left=0;bottom=0;right=0;dropTarget=0;collapsible=0;recursiveResize=0;expand=0;fontStyle=0;strokeColor=inherit;fillColor=#ffffff;" vertex="1" parent="hcqZwNflrP7TavyykuLO-100">
          <mxGeometry y="65" width="700" height="32" as="geometry" />
        </mxCell>
        <mxCell id="hcqZwNflrP7TavyykuLO-201" value="xxx" style="connectable=0;recursiveResize=0;strokeColor=inherit;fillColor=inherit;align=center;whiteSpace=wrap;html=1;" vertex="1" parent="hcqZwNflrP7TavyykuLO-200">
          <mxGeometry width="99" height="32" as="geometry">
            <mxRectangle width="99" height="32" as="alternateBounds" />
          </mxGeometry>
        </mxCell>
        <mxCell id="hcqZwNflrP7TavyykuLO-202" value="input" style="connectable=0;recursiveResize=0;strokeColor=inherit;fillColor=inherit;align=center;whiteSpace=wrap;html=1;" vertex="1" parent="hcqZwNflrP7TavyykuLO-200">
          <mxGeometry x="99" width="101" height="32" as="geometry">
            <mxRectangle width="101" height="32" as="alternateBounds" />
          </mxGeometry>
        </mxCell>
        <mxCell id="hcqZwNflrP7TavyykuLO-203" value="haven" style="connectable=0;recursiveResize=0;strokeColor=inherit;fillColor=inherit;align=center;whiteSpace=wrap;html=1;" vertex="1" parent="hcqZwNflrP7TavyykuLO-200">
          <mxGeometry x="200" width="100" height="32" as="geometry">
            <mxRectangle width="100" height="32" as="alternateBounds" />
          </mxGeometry>
        </mxCell>
        <mxCell id="hcqZwNflrP7TavyykuLO-204" value="好看的输入框" style="connectable=0;recursiveResize=0;strokeColor=inherit;fillColor=inherit;align=center;whiteSpace=wrap;html=1;" vertex="1" parent="hcqZwNflrP7TavyykuLO-200">
          <mxGeometry x="300" width="100" height="32" as="geometry">
            <mxRectangle width="100" height="32" as="alternateBounds" />
          </mxGeometry>
        </mxCell>
        <mxCell id="hcqZwNflrP7TavyykuLO-205" value="&quot;props xxxx&quot;" style="connectable=0;recursiveResize=0;strokeColor=inherit;fillColor=inherit;align=center;whiteSpace=wrap;html=1;" vertex="1" parent="hcqZwNflrP7TavyykuLO-200">
          <mxGeometry x="400" width="100" height="32" as="geometry">
            <mxRectangle width="100" height="32" as="alternateBounds" />
          </mxGeometry>
        </mxCell>
        <mxCell id="hcqZwNflrP7TavyykuLO-206" value="&lt;font color=&quot;#ff0000&quot;&gt;lv0&lt;/font&gt;" style="connectable=0;recursiveResize=0;strokeColor=inherit;fillColor=inherit;align=center;whiteSpace=wrap;html=1;" vertex="1" parent="hcqZwNflrP7TavyykuLO-200">
          <mxGeometry x="500" width="100" height="32" as="geometry">
            <mxRectangle width="100" height="32" as="alternateBounds" />
          </mxGeometry>
        </mxCell>
        <mxCell id="hcqZwNflrP7TavyykuLO-207" value="v0" style="connectable=0;recursiveResize=0;strokeColor=inherit;fillColor=inherit;align=center;whiteSpace=wrap;html=1;" vertex="1" parent="hcqZwNflrP7TavyykuLO-200">
          <mxGeometry x="600" width="100" height="32" as="geometry">
            <mxRectangle width="100" height="32" as="alternateBounds" />
          </mxGeometry>
        </mxCell>
        <mxCell id="hcqZwNflrP7TavyykuLO-208" value="" style="shape=tableRow;horizontal=0;startSize=0;swimlaneHead=0;swimlaneBody=0;top=0;left=0;bottom=0;right=0;dropTarget=0;collapsible=0;recursiveResize=0;expand=0;fontStyle=0;strokeColor=inherit;fillColor=#ffffff;" vertex="1" parent="hcqZwNflrP7TavyykuLO-100">
          <mxGeometry y="97" width="700" height="32" as="geometry" />
        </mxCell>
        <mxCell id="hcqZwNflrP7TavyykuLO-209" value="xxx" style="connectable=0;recursiveResize=0;strokeColor=inherit;fillColor=inherit;align=center;whiteSpace=wrap;html=1;" vertex="1" parent="hcqZwNflrP7TavyykuLO-208">
          <mxGeometry width="99" height="32" as="geometry">
            <mxRectangle width="99" height="32" as="alternateBounds" />
          </mxGeometry>
        </mxCell>
        <mxCell id="hcqZwNflrP7TavyykuLO-210" value="button" style="connectable=0;recursiveResize=0;strokeColor=inherit;fillColor=inherit;align=center;whiteSpace=wrap;html=1;" vertex="1" parent="hcqZwNflrP7TavyykuLO-208">
          <mxGeometry x="99" width="101" height="32" as="geometry">
            <mxRectangle width="101" height="32" as="alternateBounds" />
          </mxGeometry>
        </mxCell>
        <mxCell id="hcqZwNflrP7TavyykuLO-211" value="one" style="connectable=0;recursiveResize=0;strokeColor=inherit;fillColor=inherit;align=center;whiteSpace=wrap;html=1;" vertex="1" parent="hcqZwNflrP7TavyykuLO-208">
          <mxGeometry x="200" width="100" height="32" as="geometry">
            <mxRectangle width="100" height="32" as="alternateBounds" />
          </mxGeometry>
        </mxCell>
        <mxCell id="hcqZwNflrP7TavyykuLO-212" value="不好看的按钮" style="connectable=0;recursiveResize=0;strokeColor=inherit;fillColor=inherit;align=center;whiteSpace=wrap;html=1;" vertex="1" parent="hcqZwNflrP7TavyykuLO-208">
          <mxGeometry x="300" width="100" height="32" as="geometry">
            <mxRectangle width="100" height="32" as="alternateBounds" />
          </mxGeometry>
        </mxCell>
        <mxCell id="hcqZwNflrP7TavyykuLO-213" value="&quot;props xxxx&quot;" style="connectable=0;recursiveResize=0;strokeColor=inherit;fillColor=inherit;align=center;whiteSpace=wrap;html=1;" vertex="1" parent="hcqZwNflrP7TavyykuLO-208">
          <mxGeometry x="400" width="100" height="32" as="geometry">
            <mxRectangle width="100" height="32" as="alternateBounds" />
          </mxGeometry>
        </mxCell>
        <mxCell id="hcqZwNflrP7TavyykuLO-214" value="&lt;font color=&quot;#ff0000&quot;&gt;lv0&lt;/font&gt;" style="connectable=0;recursiveResize=0;strokeColor=inherit;fillColor=inherit;align=center;whiteSpace=wrap;html=1;" vertex="1" parent="hcqZwNflrP7TavyykuLO-208">
          <mxGeometry x="500" width="100" height="32" as="geometry">
            <mxRectangle width="100" height="32" as="alternateBounds" />
          </mxGeometry>
        </mxCell>
        <mxCell id="hcqZwNflrP7TavyykuLO-215" value="v0" style="connectable=0;recursiveResize=0;strokeColor=inherit;fillColor=inherit;align=center;whiteSpace=wrap;html=1;" vertex="1" parent="hcqZwNflrP7TavyykuLO-208">
          <mxGeometry x="600" width="100" height="32" as="geometry">
            <mxRectangle width="100" height="32" as="alternateBounds" />
          </mxGeometry>
        </mxCell>
        <mxCell id="hcqZwNflrP7TavyykuLO-216" value="" style="shape=tableRow;horizontal=0;startSize=0;swimlaneHead=0;swimlaneBody=0;top=0;left=0;bottom=0;right=0;dropTarget=0;collapsible=0;recursiveResize=0;expand=0;fontStyle=0;strokeColor=inherit;fillColor=#ffffff;" vertex="1" parent="hcqZwNflrP7TavyykuLO-100">
          <mxGeometry y="129" width="700" height="31" as="geometry" />
        </mxCell>
        <mxCell id="hcqZwNflrP7TavyykuLO-217" value="xxx" style="connectable=0;recursiveResize=0;strokeColor=inherit;fillColor=inherit;align=center;whiteSpace=wrap;html=1;" vertex="1" parent="hcqZwNflrP7TavyykuLO-216">
          <mxGeometry width="99" height="31" as="geometry">
            <mxRectangle width="99" height="31" as="alternateBounds" />
          </mxGeometry>
        </mxCell>
        <mxCell id="hcqZwNflrP7TavyykuLO-218" value="input" style="connectable=0;recursiveResize=0;strokeColor=inherit;fillColor=inherit;align=center;whiteSpace=wrap;html=1;" vertex="1" parent="hcqZwNflrP7TavyykuLO-216">
          <mxGeometry x="99" width="101" height="31" as="geometry">
            <mxRectangle width="101" height="31" as="alternateBounds" />
          </mxGeometry>
        </mxCell>
        <mxCell id="hcqZwNflrP7TavyykuLO-219" value="one" style="connectable=0;recursiveResize=0;strokeColor=inherit;fillColor=inherit;align=center;whiteSpace=wrap;html=1;" vertex="1" parent="hcqZwNflrP7TavyykuLO-216">
          <mxGeometry x="200" width="100" height="31" as="geometry">
            <mxRectangle width="100" height="31" as="alternateBounds" />
          </mxGeometry>
        </mxCell>
        <mxCell id="hcqZwNflrP7TavyykuLO-220" value="不好看的输入框" style="connectable=0;recursiveResize=0;strokeColor=inherit;fillColor=inherit;align=center;whiteSpace=wrap;html=1;" vertex="1" parent="hcqZwNflrP7TavyykuLO-216">
          <mxGeometry x="300" width="100" height="31" as="geometry">
            <mxRectangle width="100" height="31" as="alternateBounds" />
          </mxGeometry>
        </mxCell>
        <mxCell id="hcqZwNflrP7TavyykuLO-221" value="&quot;props xxxx&quot;" style="connectable=0;recursiveResize=0;strokeColor=inherit;fillColor=inherit;align=center;whiteSpace=wrap;html=1;" vertex="1" parent="hcqZwNflrP7TavyykuLO-216">
          <mxGeometry x="400" width="100" height="31" as="geometry">
            <mxRectangle width="100" height="31" as="alternateBounds" />
          </mxGeometry>
        </mxCell>
        <mxCell id="hcqZwNflrP7TavyykuLO-222" value="&lt;font color=&quot;#ff0000&quot;&gt;lv0&lt;/font&gt;" style="connectable=0;recursiveResize=0;strokeColor=inherit;fillColor=inherit;align=center;whiteSpace=wrap;html=1;" vertex="1" parent="hcqZwNflrP7TavyykuLO-216">
          <mxGeometry x="500" width="100" height="31" as="geometry">
            <mxRectangle width="100" height="31" as="alternateBounds" />
          </mxGeometry>
        </mxCell>
        <mxCell id="hcqZwNflrP7TavyykuLO-223" value="v0" style="connectable=0;recursiveResize=0;strokeColor=inherit;fillColor=inherit;align=center;whiteSpace=wrap;html=1;" vertex="1" parent="hcqZwNflrP7TavyykuLO-216">
          <mxGeometry x="600" width="100" height="31" as="geometry">
            <mxRectangle width="100" height="31" as="alternateBounds" />
          </mxGeometry>
        </mxCell>
        <mxCell id="hcqZwNflrP7TavyykuLO-224" value="" style="shape=tableRow;horizontal=0;startSize=0;swimlaneHead=0;swimlaneBody=0;top=0;left=0;bottom=0;right=0;dropTarget=0;collapsible=0;recursiveResize=0;expand=0;fontStyle=0;strokeColor=inherit;fillColor=#ffffff;" vertex="1" parent="hcqZwNflrP7TavyykuLO-100">
          <mxGeometry y="160" width="700" height="32" as="geometry" />
        </mxCell>
        <mxCell id="hcqZwNflrP7TavyykuLO-225" value="xxx" style="connectable=0;recursiveResize=0;strokeColor=inherit;fillColor=inherit;align=center;whiteSpace=wrap;html=1;" vertex="1" parent="hcqZwNflrP7TavyykuLO-224">
          <mxGeometry width="99" height="32" as="geometry">
            <mxRectangle width="99" height="32" as="alternateBounds" />
          </mxGeometry>
        </mxCell>
        <mxCell id="hcqZwNflrP7TavyykuLO-226" value="button" style="connectable=0;recursiveResize=0;strokeColor=inherit;fillColor=inherit;align=center;whiteSpace=wrap;html=1;" vertex="1" parent="hcqZwNflrP7TavyykuLO-224">
          <mxGeometry x="99" width="101" height="32" as="geometry">
            <mxRectangle width="101" height="32" as="alternateBounds" />
          </mxGeometry>
        </mxCell>
        <mxCell id="hcqZwNflrP7TavyykuLO-227" value="haven" style="connectable=0;recursiveResize=0;strokeColor=inherit;fillColor=inherit;align=center;whiteSpace=wrap;html=1;" vertex="1" parent="hcqZwNflrP7TavyykuLO-224">
          <mxGeometry x="200" width="100" height="32" as="geometry">
            <mxRectangle width="100" height="32" as="alternateBounds" />
          </mxGeometry>
        </mxCell>
        <mxCell id="hcqZwNflrP7TavyykuLO-228" value="好看的按钮" style="connectable=0;recursiveResize=0;strokeColor=inherit;fillColor=inherit;align=center;whiteSpace=wrap;html=1;" vertex="1" parent="hcqZwNflrP7TavyykuLO-224">
          <mxGeometry x="300" width="100" height="32" as="geometry">
            <mxRectangle width="100" height="32" as="alternateBounds" />
          </mxGeometry>
        </mxCell>
        <mxCell id="hcqZwNflrP7TavyykuLO-229" value="&quot;props xxxx xxxx&quot;" style="connectable=0;recursiveResize=0;strokeColor=inherit;fillColor=inherit;align=center;whiteSpace=wrap;html=1;" vertex="1" parent="hcqZwNflrP7TavyykuLO-224">
          <mxGeometry x="400" width="100" height="32" as="geometry">
            <mxRectangle width="100" height="32" as="alternateBounds" />
          </mxGeometry>
        </mxCell>
        <mxCell id="hcqZwNflrP7TavyykuLO-230" value="user1" style="connectable=0;recursiveResize=0;strokeColor=inherit;fillColor=inherit;align=center;whiteSpace=wrap;html=1;" vertex="1" parent="hcqZwNflrP7TavyykuLO-224">
          <mxGeometry x="500" width="100" height="32" as="geometry">
            <mxRectangle width="100" height="32" as="alternateBounds" />
          </mxGeometry>
        </mxCell>
        <mxCell id="hcqZwNflrP7TavyykuLO-231" value="v1" style="connectable=0;recursiveResize=0;strokeColor=inherit;fillColor=inherit;align=center;whiteSpace=wrap;html=1;" vertex="1" parent="hcqZwNflrP7TavyykuLO-224">
          <mxGeometry x="600" width="100" height="32" as="geometry">
            <mxRectangle width="100" height="32" as="alternateBounds" />
          </mxGeometry>
        </mxCell>
        <mxCell id="hcqZwNflrP7TavyykuLO-232" value="" style="shape=tableRow;horizontal=0;startSize=0;swimlaneHead=0;swimlaneBody=0;top=0;left=0;bottom=0;right=0;dropTarget=0;collapsible=0;recursiveResize=0;expand=0;fontStyle=0;strokeColor=inherit;fillColor=#ffffff;" vertex="1" parent="hcqZwNflrP7TavyykuLO-100">
          <mxGeometry y="192" width="700" height="32" as="geometry" />
        </mxCell>
        <mxCell id="hcqZwNflrP7TavyykuLO-233" value="xxx" style="connectable=0;recursiveResize=0;strokeColor=inherit;fillColor=inherit;align=center;whiteSpace=wrap;html=1;" vertex="1" parent="hcqZwNflrP7TavyykuLO-232">
          <mxGeometry width="99" height="32" as="geometry">
            <mxRectangle width="99" height="32" as="alternateBounds" />
          </mxGeometry>
        </mxCell>
        <mxCell id="hcqZwNflrP7TavyykuLO-234" value="input" style="connectable=0;recursiveResize=0;strokeColor=inherit;fillColor=inherit;align=center;whiteSpace=wrap;html=1;" vertex="1" parent="hcqZwNflrP7TavyykuLO-232">
          <mxGeometry x="99" width="101" height="32" as="geometry">
            <mxRectangle width="101" height="32" as="alternateBounds" />
          </mxGeometry>
        </mxCell>
        <mxCell id="hcqZwNflrP7TavyykuLO-235" value="one" style="connectable=0;recursiveResize=0;strokeColor=inherit;fillColor=inherit;align=center;whiteSpace=wrap;html=1;" vertex="1" parent="hcqZwNflrP7TavyykuLO-232">
          <mxGeometry x="200" width="100" height="32" as="geometry">
            <mxRectangle width="100" height="32" as="alternateBounds" />
          </mxGeometry>
        </mxCell>
        <mxCell id="hcqZwNflrP7TavyykuLO-236" value="其实也挺好看的按钮" style="connectable=0;recursiveResize=0;strokeColor=inherit;fillColor=inherit;align=center;whiteSpace=wrap;html=1;" vertex="1" parent="hcqZwNflrP7TavyykuLO-232">
          <mxGeometry x="300" width="100" height="32" as="geometry">
            <mxRectangle width="100" height="32" as="alternateBounds" />
          </mxGeometry>
        </mxCell>
        <mxCell id="hcqZwNflrP7TavyykuLO-237" value="&quot;props xxxx&quot;" style="connectable=0;recursiveResize=0;strokeColor=inherit;fillColor=inherit;align=center;whiteSpace=wrap;html=1;" vertex="1" parent="hcqZwNflrP7TavyykuLO-232">
          <mxGeometry x="400" width="100" height="32" as="geometry">
            <mxRectangle width="100" height="32" as="alternateBounds" />
          </mxGeometry>
        </mxCell>
        <mxCell id="hcqZwNflrP7TavyykuLO-238" value="user2" style="connectable=0;recursiveResize=0;strokeColor=inherit;fillColor=inherit;align=center;whiteSpace=wrap;html=1;" vertex="1" parent="hcqZwNflrP7TavyykuLO-232">
          <mxGeometry x="500" width="100" height="32" as="geometry">
            <mxRectangle width="100" height="32" as="alternateBounds" />
          </mxGeometry>
        </mxCell>
        <mxCell id="hcqZwNflrP7TavyykuLO-239" value="v3" style="connectable=0;recursiveResize=0;strokeColor=inherit;fillColor=inherit;align=center;whiteSpace=wrap;html=1;" vertex="1" parent="hcqZwNflrP7TavyykuLO-232">
          <mxGeometry x="600" width="100" height="32" as="geometry">
            <mxRectangle width="100" height="32" as="alternateBounds" />
          </mxGeometry>
        </mxCell>
        <mxCell id="hcqZwNflrP7TavyykuLO-122" value="&lt;font style=&quot;font-size: 24px;&quot;&gt;codegenList collecttion&lt;/font&gt;" style="text;html=1;align=center;verticalAlign=middle;resizable=0;points=[];autosize=1;strokeColor=none;fillColor=none;" vertex="1" parent="1">
          <mxGeometry x="-270" y="470" width="270" height="40" as="geometry" />
        </mxCell>
        <mxCell id="hcqZwNflrP7TavyykuLO-240" value="codegen&amp;nbsp;&lt;span style=&quot;background-color: initial;&quot;&gt;List API&lt;/span&gt;" style="swimlane;fontStyle=0;childLayout=stackLayout;horizontal=1;startSize=30;horizontalStack=0;resizeParent=1;resizeParentMax=0;resizeLast=0;collapsible=1;marginBottom=0;whiteSpace=wrap;html=1;" vertex="1" parent="1">
          <mxGeometry x="-450" y="790" width="320" height="120" as="geometry" />
        </mxCell>
        <mxCell id="hcqZwNflrP7TavyykuLO-241" value="getCodegenList(codegenType)" style="text;strokeColor=none;fillColor=none;align=left;verticalAlign=middle;spacingLeft=4;spacingRight=4;overflow=hidden;points=[[0,0.5],[1,0.5]];portConstraint=eastwest;rotatable=0;whiteSpace=wrap;html=1;" vertex="1" parent="hcqZwNflrP7TavyykuLO-240">
          <mxGeometry y="30" width="320" height="30" as="geometry" />
        </mxCell>
        <mxCell id="hcqZwNflrP7TavyykuLO-242" value="insertCodegen(codegenType,component,description,api)" style="text;strokeColor=none;fillColor=none;align=left;verticalAlign=middle;spacingLeft=4;spacingRight=4;overflow=hidden;points=[[0,0.5],[1,0.5]];portConstraint=eastwest;rotatable=0;whiteSpace=wrap;html=1;" vertex="1" parent="hcqZwNflrP7TavyykuLO-240">
          <mxGeometry y="60" width="320" height="30" as="geometry" />
        </mxCell>
        <mxCell id="hcqZwNflrP7TavyykuLO-243" value="resetcCodegen(codegenType,component)" style="text;strokeColor=none;fillColor=none;align=left;verticalAlign=middle;spacingLeft=4;spacingRight=4;overflow=hidden;points=[[0,0.5],[1,0.5]];portConstraint=eastwest;rotatable=0;whiteSpace=wrap;html=1;" vertex="1" parent="hcqZwNflrP7TavyykuLO-240">
          <mxGeometry y="90" width="320" height="30" as="geometry" />
        </mxCell>
        <mxCell id="hcqZwNflrP7TavyykuLO-244" value="" style="rounded=0;whiteSpace=wrap;html=1;" vertex="1" parent="1">
          <mxGeometry x="-60" y="780" width="640" height="350" as="geometry" />
        </mxCell>
        <mxCell id="hcqZwNflrP7TavyykuLO-245" value="search" style="rounded=0;whiteSpace=wrap;html=1;" vertex="1" parent="1">
          <mxGeometry x="-50" y="790" width="190" height="40" as="geometry" />
        </mxCell>
        <mxCell id="hcqZwNflrP7TavyykuLO-246" value="" style="rounded=0;whiteSpace=wrap;html=1;" vertex="1" parent="1">
          <mxGeometry x="-50" y="840" width="190" height="280" as="geometry" />
        </mxCell>
        <mxCell id="hcqZwNflrP7TavyykuLO-247" value="component1" style="rounded=0;whiteSpace=wrap;html=1;" vertex="1" parent="1">
          <mxGeometry x="-40" y="850" width="170" height="50" as="geometry" />
        </mxCell>
        <mxCell id="hcqZwNflrP7TavyykuLO-248" value="component2" style="rounded=0;whiteSpace=wrap;html=1;" vertex="1" parent="1">
          <mxGeometry x="-40" y="910" width="170" height="50" as="geometry" />
        </mxCell>
        <mxCell id="hcqZwNflrP7TavyykuLO-249" value="component3" style="rounded=0;whiteSpace=wrap;html=1;" vertex="1" parent="1">
          <mxGeometry x="-40" y="970" width="170" height="50" as="geometry" />
        </mxCell>
        <mxCell id="hcqZwNflrP7TavyykuLO-250" value="component4" style="rounded=0;whiteSpace=wrap;html=1;" vertex="1" parent="1">
          <mxGeometry x="-40" y="1030" width="170" height="50" as="geometry" />
        </mxCell>
        <mxCell id="hcqZwNflrP7TavyykuLO-251" value="" style="rounded=0;whiteSpace=wrap;html=1;" vertex="1" parent="1">
          <mxGeometry x="150" y="840" width="420" height="120" as="geometry" />
        </mxCell>
        <mxCell id="hcqZwNflrP7TavyykuLO-252" value="" style="rounded=0;whiteSpace=wrap;html=1;" vertex="1" parent="1">
          <mxGeometry x="150" y="1000" width="420" height="120" as="geometry" />
        </mxCell>
        <mxCell id="hcqZwNflrP7TavyykuLO-254" value="description" style="text;html=1;align=center;verticalAlign=middle;whiteSpace=wrap;rounded=0;" vertex="1" parent="1">
          <mxGeometry x="150" y="800" width="60" height="30" as="geometry" />
        </mxCell>
        <mxCell id="hcqZwNflrP7TavyykuLO-256" value="api" style="text;html=1;align=center;verticalAlign=middle;whiteSpace=wrap;rounded=0;" vertex="1" parent="1">
          <mxGeometry x="140" y="970" width="60" height="30" as="geometry" />
        </mxCell>
        <mxCell id="hcqZwNflrP7TavyykuLO-257" value="office" style="rounded=0;whiteSpace=wrap;html=1;" vertex="1" parent="1">
          <mxGeometry x="100" y="860" width="40" height="10" as="geometry" />
        </mxCell>
        <mxCell id="hcqZwNflrP7TavyykuLO-260" value="office" style="rounded=0;whiteSpace=wrap;html=1;" vertex="1" parent="1">
          <mxGeometry x="100" y="980" width="40" height="10" as="geometry" />
        </mxCell>
        <mxCell id="hcqZwNflrP7TavyykuLO-261" value="office" style="rounded=0;whiteSpace=wrap;html=1;" vertex="1" parent="1">
          <mxGeometry x="100" y="1040" width="40" height="10" as="geometry" />
        </mxCell>
        <mxCell id="hcqZwNflrP7TavyykuLO-264" value="reset" style="ellipse;whiteSpace=wrap;html=1;aspect=fixed;" vertex="1" parent="1">
          <mxGeometry x="-30" y="920" width="20" height="20" as="geometry" />
        </mxCell>
        <mxCell id="hcqZwNflrP7TavyykuLO-265" value="user1 show haven codegen" style="swimlane;fontStyle=0;childLayout=stackLayout;horizontal=1;startSize=30;horizontalStack=0;resizeParent=1;resizeParentMax=0;resizeLast=0;collapsible=1;marginBottom=0;whiteSpace=wrap;html=1;" vertex="1" parent="1">
          <mxGeometry x="355" y="460" width="140" height="120" as="geometry" />
        </mxCell>
        <mxCell id="hcqZwNflrP7TavyykuLO-266" value="button" style="text;strokeColor=none;fillColor=none;align=left;verticalAlign=middle;spacingLeft=4;spacingRight=4;overflow=hidden;points=[[0,0.5],[1,0.5]];portConstraint=eastwest;rotatable=0;whiteSpace=wrap;html=1;" vertex="1" parent="hcqZwNflrP7TavyykuLO-265">
          <mxGeometry y="30" width="140" height="30" as="geometry" />
        </mxCell>
        <mxCell id="hcqZwNflrP7TavyykuLO-267" value="input" style="text;strokeColor=none;fillColor=none;align=left;verticalAlign=middle;spacingLeft=4;spacingRight=4;overflow=hidden;points=[[0,0.5],[1,0.5]];portConstraint=eastwest;rotatable=0;whiteSpace=wrap;html=1;" vertex="1" parent="hcqZwNflrP7TavyykuLO-265">
          <mxGeometry y="60" width="140" height="30" as="geometry" />
        </mxCell>
        <mxCell id="hcqZwNflrP7TavyykuLO-268" value="xxx" style="text;strokeColor=none;fillColor=none;align=left;verticalAlign=middle;spacingLeft=4;spacingRight=4;overflow=hidden;points=[[0,0.5],[1,0.5]];portConstraint=eastwest;rotatable=0;whiteSpace=wrap;html=1;" vertex="1" parent="hcqZwNflrP7TavyykuLO-265">
          <mxGeometry y="90" width="140" height="30" as="geometry" />
        </mxCell>
        <mxCell id="hcqZwNflrP7TavyykuLO-271" style="edgeStyle=orthogonalEdgeStyle;rounded=0;orthogonalLoop=1;jettySize=auto;html=1;exitX=1;exitY=0.25;exitDx=0;exitDy=0;entryX=0;entryY=0.5;entryDx=0;entryDy=0;curved=1;" edge="1" parent="1" source="hcqZwNflrP7TavyykuLO-224" target="hcqZwNflrP7TavyykuLO-266">
          <mxGeometry relative="1" as="geometry" />
        </mxCell>
        <mxCell id="hcqZwNflrP7TavyykuLO-272" style="edgeStyle=orthogonalEdgeStyle;rounded=0;orthogonalLoop=1;jettySize=auto;html=1;exitX=1;exitY=0.5;exitDx=0;exitDy=0;entryX=0;entryY=0.5;entryDx=0;entryDy=0;curved=1;" edge="1" parent="1" source="hcqZwNflrP7TavyykuLO-200" target="hcqZwNflrP7TavyykuLO-267">
          <mxGeometry relative="1" as="geometry">
            <Array as="points">
              <mxPoint x="280" y="611" />
              <mxPoint x="280" y="535" />
            </Array>
          </mxGeometry>
        </mxCell>
        <mxCell id="hcqZwNflrP7TavyykuLO-273" value="user2 show one codegen" style="swimlane;fontStyle=0;childLayout=stackLayout;horizontal=1;startSize=30;horizontalStack=0;resizeParent=1;resizeParentMax=0;resizeLast=0;collapsible=1;marginBottom=0;whiteSpace=wrap;html=1;" vertex="1" parent="1">
          <mxGeometry x="355" y="630" width="140" height="120" as="geometry" />
        </mxCell>
        <mxCell id="hcqZwNflrP7TavyykuLO-274" value="button" style="text;strokeColor=none;fillColor=none;align=left;verticalAlign=middle;spacingLeft=4;spacingRight=4;overflow=hidden;points=[[0,0.5],[1,0.5]];portConstraint=eastwest;rotatable=0;whiteSpace=wrap;html=1;" vertex="1" parent="hcqZwNflrP7TavyykuLO-273">
          <mxGeometry y="30" width="140" height="30" as="geometry" />
        </mxCell>
        <mxCell id="hcqZwNflrP7TavyykuLO-275" value="input" style="text;strokeColor=none;fillColor=none;align=left;verticalAlign=middle;spacingLeft=4;spacingRight=4;overflow=hidden;points=[[0,0.5],[1,0.5]];portConstraint=eastwest;rotatable=0;whiteSpace=wrap;html=1;" vertex="1" parent="hcqZwNflrP7TavyykuLO-273">
          <mxGeometry y="60" width="140" height="30" as="geometry" />
        </mxCell>
        <mxCell id="hcqZwNflrP7TavyykuLO-276" value="xxx" style="text;strokeColor=none;fillColor=none;align=left;verticalAlign=middle;spacingLeft=4;spacingRight=4;overflow=hidden;points=[[0,0.5],[1,0.5]];portConstraint=eastwest;rotatable=0;whiteSpace=wrap;html=1;" vertex="1" parent="hcqZwNflrP7TavyykuLO-273">
          <mxGeometry y="90" width="140" height="30" as="geometry" />
        </mxCell>
        <mxCell id="hcqZwNflrP7TavyykuLO-277" style="edgeStyle=orthogonalEdgeStyle;rounded=0;orthogonalLoop=1;jettySize=auto;html=1;exitX=1;exitY=0.5;exitDx=0;exitDy=0;entryX=0;entryY=0.5;entryDx=0;entryDy=0;curved=1;" edge="1" parent="1" source="hcqZwNflrP7TavyykuLO-232" target="hcqZwNflrP7TavyykuLO-275">
          <mxGeometry relative="1" as="geometry" />
        </mxCell>
        <mxCell id="hcqZwNflrP7TavyykuLO-278" style="edgeStyle=orthogonalEdgeStyle;rounded=0;orthogonalLoop=1;jettySize=auto;html=1;exitX=1;exitY=0.5;exitDx=0;exitDy=0;entryX=0;entryY=0.5;entryDx=0;entryDy=0;curved=1;" edge="1" parent="1" source="hcqZwNflrP7TavyykuLO-208" target="hcqZwNflrP7TavyykuLO-274">
          <mxGeometry relative="1" as="geometry" />
        </mxCell>
        <mxCell id="hcqZwNflrP7TavyykuLO-279" value="统计高频修改" style="ellipse;shape=cloud;whiteSpace=wrap;html=1;" vertex="1" parent="1">
          <mxGeometry x="-450" y="930" width="120" height="80" as="geometry" />
        </mxCell>
        <mxCell id="hcqZwNflrP7TavyykuLO-280" style="edgeStyle=orthogonalEdgeStyle;rounded=1;orthogonalLoop=1;jettySize=auto;html=1;exitX=0;exitY=0.5;exitDx=0;exitDy=0;entryX=0.098;entryY=0.561;entryDx=0;entryDy=0;entryPerimeter=0;curved=0;" edge="1" parent="1" source="hcqZwNflrP7TavyykuLO-242" target="hcqZwNflrP7TavyykuLO-279">
          <mxGeometry relative="1" as="geometry">
            <Array as="points">
              <mxPoint x="-470" y="865" />
              <mxPoint x="-470" y="940" />
              <mxPoint x="-450" y="940" />
              <mxPoint x="-450" y="975" />
            </Array>
          </mxGeometry>
        </mxCell>
      </root>
    </mxGraphModel>
  </diagram>
</mxfile>
